<svg width="31" height="31" viewBox="0 0 31 31" fill="none" xmlns="http://www.w3.org/2000/svg">
<g clip-path="url(#clip0_77_513)">
<path d="M16.2512 7.84595C15.8163 7.84595 15.4639 8.19842 15.4639 8.63327V10.1473C15.4639 10.5822 15.8163 10.9347 16.2512 10.9347C16.686 10.9347 17.0385 10.5822 17.0385 10.1473V8.63327C17.0385 8.19842 16.686 7.84595 16.2512 7.84595Z" fill="#302742"/>
<path d="M16.2512 24.5281C15.8163 24.5281 15.4639 24.8806 15.4639 25.3154V26.8295C15.4639 27.2643 15.8163 27.6168 16.2512 27.6168C16.686 27.6168 17.0385 27.2643 17.0385 26.8295V25.3154C17.0385 24.8806 16.686 24.5281 16.2512 24.5281Z" fill="#302742"/>
<path d="M25.3483 16.9437H23.8342C23.3994 16.9437 23.0469 17.2962 23.0469 17.731C23.0469 18.1659 23.3994 18.5184 23.8342 18.5184H25.3483C25.7831 18.5184 26.1356 18.1659 26.1356 17.731C26.1356 17.2962 25.7831 16.9437 25.3483 16.9437Z" fill="#302742"/>
<path d="M23.2662 23.6328C23.258 23.6242 23.2495 23.6158 23.2408 23.6075L22.1701 22.5367C21.8697 22.2223 21.3713 22.2109 21.0569 22.5113C20.7425 22.8117 20.7311 23.3101 21.0315 23.6245C21.0398 23.6331 21.0483 23.6416 21.0569 23.6499L22.1277 24.7206C22.4281 25.035 22.9264 25.0464 23.2408 24.746C23.5552 24.4456 23.5666 23.9472 23.2662 23.6328Z" fill="#302742"/>
<path d="M22.7946 11.1407C22.4922 10.8631 22.0274 10.8644 21.7266 11.1436L17.5477 15.3224C16.216 14.6046 14.5545 15.1024 13.8367 16.4341C13.6213 16.8337 13.5086 17.2807 13.5088 17.7347L13.5106 17.731C13.5098 19.2446 14.7361 20.4722 16.2496 20.473C17.7632 20.4738 18.9908 19.2475 18.9916 17.7339C18.9918 17.2794 18.879 16.832 18.6633 16.432L22.8422 12.2531C23.1362 11.9328 23.1149 11.4347 22.7946 11.1407ZM16.2511 18.8969C15.6072 18.8969 15.0852 18.3749 15.0852 17.731C15.0859 17.0874 15.6075 16.5659 16.2511 16.5652C16.8949 16.5652 17.4169 17.0872 17.4169 17.731C17.4169 18.3749 16.8949 18.8969 16.2511 18.8969Z" fill="#302742"/>
<path d="M28.691 8.08214C28.9914 8.39653 29.4898 8.40791 29.8042 8.10752C30.1185 7.80713 30.1299 7.30875 29.8295 6.99437C29.8213 6.98571 29.8128 6.97723 29.8042 6.96899L27.0134 4.17885C26.699 3.87846 26.2007 3.88985 25.9003 4.20423C25.6095 4.50856 25.6095 4.98767 25.9003 5.292L26.7427 6.13443L25.0705 7.80658C22.848 5.81872 20.0164 4.64428 17.0393 4.47561V1.57464H19.8191C20.254 1.57464 20.6064 1.22216 20.6064 0.78732C20.6064 0.352477 20.254 0 19.8191 0H12.6842C12.2493 0 11.8969 0.352477 11.8969 0.78732C11.8969 1.22216 12.2493 1.57464 12.6842 1.57464H15.464V4.47682C12.2188 4.66063 9.15602 6.03717 6.86407 8.34196C6.56368 8.65634 6.57506 9.15471 6.88944 9.45511C7.19377 9.74587 7.67295 9.74587 7.97722 9.45511C12.5474 4.88496 19.957 4.8849 24.5272 9.45499L24.5273 9.45511C29.0901 14.0179 29.0901 21.4424 24.5273 26.0052C19.9645 30.568 12.54 30.568 7.97722 26.0052C7.66284 25.7048 7.16446 25.7162 6.86407 26.0306C6.57331 26.3349 6.57331 26.814 6.86407 27.1183C12.0531 32.2995 20.4598 32.2931 25.6409 27.1041C30.5993 22.1382 30.8371 14.1713 26.1837 8.91852L27.8564 7.24577L28.691 8.08214Z" fill="#302742"/>
<path d="M8.96029 11.8946H1.73996C1.30511 11.8946 0.952637 12.2471 0.952637 12.6819C0.952637 13.1168 1.30511 13.4692 1.73996 13.4692H8.96029C9.39513 13.4692 9.74761 13.1168 9.74761 12.6819C9.74761 12.2471 9.39513 11.8946 8.96029 11.8946Z" fill="#302742"/>
<path d="M10.7954 16.9437H3.57443C3.13959 16.9437 2.78711 17.2962 2.78711 17.731C2.78711 18.1659 3.13959 18.5184 3.57443 18.5184H10.7954C11.2302 18.5184 11.5827 18.1659 11.5827 17.731C11.5827 17.2962 11.2302 16.9437 10.7954 16.9437Z" fill="#302742"/>
<path d="M8.96029 21.9922H1.73996C1.30511 21.9922 0.952637 22.3447 0.952637 22.7796C0.952637 23.2144 1.30511 23.5669 1.73996 23.5669H8.96029C9.39513 23.5669 9.74761 23.2144 9.74761 22.7796C9.74761 22.3447 9.39513 21.9922 8.96029 21.9922Z" fill="#302742"/>
</g>
<defs>
<clipPath id="clip0_77_513">
<rect width="31" height="31" fill="white"/>
</clipPath>
</defs>
</svg>
