<svg width="34" height="33" viewBox="0 0 34 33" fill="none" xmlns="http://www.w3.org/2000/svg">
<path fill-rule="evenodd" clip-rule="evenodd" d="M26.7674 10.4556C26.4488 10.4556 26.2098 10.2166 26.2098 9.91787V6.81105C26.2098 6.51232 26.4488 6.25342 26.7674 6.25342C27.0661 6.25342 27.3051 6.51232 27.3051 6.81105V9.91787C27.3051 10.2166 27.0661 10.4556 26.7674 10.4556Z" fill="white"/>
<path fill-rule="evenodd" clip-rule="evenodd" d="M30.1331 10.4558C29.9937 10.4558 29.8543 10.416 29.7547 10.2965C29.5357 10.0974 29.5357 9.73887 29.7547 9.5198L31.9454 7.3291C32.1645 7.11003 32.5031 7.11003 32.7221 7.3291C32.9412 7.54817 32.9412 7.88673 32.7221 8.1058L30.5314 10.2965C30.4319 10.416 30.2725 10.4558 30.1331 10.4558Z" fill="white"/>
<path fill-rule="evenodd" clip-rule="evenodd" d="M23.3818 10.4558C23.2424 10.4558 23.103 10.416 22.9835 10.2965L20.7928 8.1058C20.5737 7.88673 20.5737 7.54817 20.7928 7.3291C21.0118 7.11003 21.3504 7.11003 21.5695 7.3291L23.7602 9.5198C23.9792 9.73887 23.9792 10.0974 23.7602 10.2965C23.6606 10.416 23.5212 10.4558 23.3818 10.4558Z" fill="white"/>
<path fill-rule="evenodd" clip-rule="evenodd" d="M4.58152 6.07423L0.120444 22.7634C-0.118542 23.6995 -0.0388799 25.5317 0.697994 26.2686C3.50608 29.0368 7.30994 30.7894 11.074 31.8051C12.0697 32.064 13.1054 32.1635 14.141 32.1436C16.013 32.1237 17.9249 31.7652 19.7173 31.2474C20.5737 31.0084 21.4898 30.7097 22.3063 30.3512C22.386 30.3313 22.4856 30.3313 22.5652 30.3712C22.7843 30.5305 23.0432 30.6699 23.3021 30.7894C23.9195 31.108 24.5767 31.4068 25.2339 31.6657C27.2852 32.4623 29.4958 32.9403 31.7064 32.9801L31.8658 33L31.9454 32.8407C32.981 31.0284 33.5785 28.758 33.8374 26.6868C34.1162 24.3965 34.0764 21.5884 33.2599 19.3977C32.284 16.8286 30.0136 15.0561 27.2454 14.8769C24.4174 14.6777 21.9678 16.2311 20.5338 18.621L20.4143 18.8202L20.5737 18.9795C21.45 19.796 22.1271 20.8117 22.625 21.8871C22.6847 22.0066 22.6449 22.1859 22.5055 22.2456C22.4656 22.2456 22.4258 22.2655 22.386 22.2655C22.2864 22.2655 22.1868 22.2058 22.1271 22.1062C20.9122 19.5172 18.622 17.4858 15.6545 17.4062C12.7867 17.3265 10.3968 19.1189 9.06251 21.5884C9.00276 21.7278 8.84344 21.7677 8.70403 21.7079C8.56462 21.6282 8.50487 21.4689 8.58454 21.3295C9.10234 20.3935 9.75955 19.5172 10.5562 18.8002L10.6557 18.7007V10.3361L9.34133 8.16536C9.30149 8.0857 9.30149 8.00603 9.32141 7.92637C9.36124 7.84671 9.4409 7.78696 9.52057 7.76705L12.1494 7.10984C12.249 7.08992 12.3486 7.10984 12.4083 7.16958L14.3999 9.10139L17.9647 4.46107L14.3799 0L4.58152 6.07423ZM26.6081 24.0181C26.4886 23.9584 26.4288 23.7791 26.5085 23.6596C26.5882 23.5202 26.7475 23.4804 26.8869 23.56C28.52 24.4961 30.2526 25.233 32.0649 25.7906C32.2043 25.8304 32.284 25.9698 32.2442 26.1291C32.2043 26.2486 32.1048 26.3084 31.9853 26.3084C31.9454 26.3084 31.9255 26.3084 31.9056 26.3084C30.0535 25.7906 28.281 24.974 26.6081 24.0181ZM6.57307 25.4321C9.182 26.9457 12.1494 28.061 15.1567 28.4593C15.2961 28.4991 15.4156 28.6186 15.3956 28.7779C15.3757 28.9173 15.2562 29.0169 15.1168 29.0169H15.0969C12.01 28.6186 8.98285 27.4436 6.29425 25.8902C6.15484 25.8304 6.11501 25.6512 6.19467 25.5317C6.27434 25.3923 6.43366 25.3524 6.57307 25.4321Z" fill="white"/>
</svg>
