<svg width="32" height="33" viewBox="0 0 32 33" fill="none" xmlns="http://www.w3.org/2000/svg">
<path fill-rule="evenodd" clip-rule="evenodd" d="M16.9472 0C7.94298 0 0.631855 7.39436 0.631855 16.5C0.631855 17.1506 1.15316 17.6786 1.79549 17.6786C2.43782 17.6786 2.95913 17.1506 2.95913 16.5C2.95913 8.69432 9.2288 2.35714 16.9472 2.35714C21.6215 2.35714 25.7559 4.68482 28.2973 8.25H27.2663C26.624 8.25118 26.1004 8.778 26.1004 9.42857C26.1004 10.0791 26.624 10.606 27.2663 10.6071H30.8364C31.4787 10.6071 31.9988 10.0791 32 9.42857V5.81743C31.9988 5.16568 31.4787 4.63886 30.8364 4.63886C30.194 4.63886 29.6739 5.16568 29.6727 5.81743V6.18986C26.6822 2.41961 22.0951 0 16.9472 0ZM13.6041 9.42857C12.9617 9.42857 12.4404 9.95657 12.4404 10.6071V12.9643H10.1132C9.47084 12.9643 8.94953 13.4923 8.94953 14.1429V18.8571C8.94953 19.5077 9.47084 20.0357 10.1132 20.0357H12.4404V22.3929C12.4404 23.0434 12.9617 23.5714 13.6041 23.5714H18.2586C18.9009 23.5714 19.4223 23.0434 19.4223 22.3929V20.0357H21.7495C22.3919 20.0357 22.9132 19.5077 22.9132 18.8571V14.1429C22.9132 13.4923 22.3919 12.9643 21.7495 12.9643H19.4223V10.6071C19.4223 9.95657 18.9009 9.42857 18.2586 9.42857H13.6041ZM14.7677 11.7857H17.095V14.1429C17.095 14.7934 17.6163 15.3214 18.2586 15.3214H20.5859V17.6786H18.2586C17.6163 17.6786 17.095 18.2066 17.095 18.8571V21.2143H14.7677V18.8571C14.7677 18.2066 14.2464 17.6786 13.6041 17.6786H11.2768V15.3214H13.6041C14.2464 15.3214 14.7677 14.7934 14.7677 14.1429V11.7857ZM30.8364 15.3214C30.194 15.3214 29.6727 15.8494 29.6727 16.5C29.6727 24.3057 23.4031 30.6429 15.6847 30.6429C10.7415 30.6429 6.40116 28.0417 3.91098 24.1242H4.73367C5.376 24.123 5.89964 23.5962 5.89964 22.9456C5.89964 22.2939 5.376 21.7659 4.73367 21.7647H1.16364C0.521309 21.7647 0.00116364 22.2939 0 22.9456V26.5544C0.00116364 27.2061 0.521309 27.7341 1.16364 27.7353C1.80596 27.7341 2.32611 27.2061 2.32727 26.5544V25.958C5.27825 30.2127 10.1597 33 15.6847 33C24.6889 33 32 25.6056 32 16.5C32 15.8494 31.4787 15.3214 30.8364 15.3214Z" fill="white"/>
</svg>
