<svg width="33" height="36" viewBox="0 0 33 36" fill="none" xmlns="http://www.w3.org/2000/svg">
<path d="M32.3948 12.9199V28.7051H21.3093C21.3283 28.35 21.3374 27.9794 21.3353 27.5934C21.3276 25.856 19.9101 24.4427 18.1748 24.442L18.146 24.4427C17.7424 24.4462 17.3402 24.4659 16.9499 24.5018C13.7402 24.7929 11.9402 26.0775 10.9959 27.1034C10.4119 27.7362 9.9618 28.4665 9.61354 29.2458C9.33721 28.6228 8.99057 28.0273 8.55885 27.4859V12.9199H32.3948ZM15.5085 19.6896H25.4444C26.0273 19.6896 26.4991 19.2171 26.4991 18.6349C26.4991 18.0527 26.0273 17.5802 25.4444 17.5802H15.5085C14.9263 17.5802 14.4538 18.0527 14.4538 18.6349C14.4538 19.2171 14.9263 19.6896 15.5085 19.6896Z" fill="white"/>
<path d="M18.3534 36H28.9551C30.8514 36 32.3948 34.4566 32.3948 32.5603V30.8145H21.0611C20.6188 33.1425 19.716 34.5874 18.9208 35.4509C18.7394 35.6477 18.5495 35.8305 18.3534 36Z" fill="white"/>
<path d="M13.5159 3.90445H27.4377V1.05469C27.4377 0.4725 26.9652 0 26.3831 0H14.5706C13.9877 0 13.5159 0.4725 13.5159 1.05469V3.90445Z" fill="white"/>
<path d="M8.64044 10.8106H32.3132C31.9511 8.59931 30.4127 6.77821 28.3631 6.01392H12.5892C10.5403 6.77892 9.00254 8.59931 8.64044 10.8106Z" fill="white"/>
<path d="M10.723 35.9685C12.2319 36.0712 15.5176 36.0311 17.369 34.0216C18.9546 32.2999 19.2348 29.4594 19.2263 27.6028C19.2236 27.0191 18.749 26.5465 18.1653 26.5518C17.8484 26.5547 17.5031 26.5692 17.1404 26.6022C14.6007 26.8328 13.2409 27.7785 12.5469 28.5323C10.6288 30.6142 10.6211 34.3338 10.723 35.9685Z" fill="white"/>
<path d="M1.85812 34.0215C3.71015 36.0317 6.99656 36.0711 8.50335 35.9691C8.60601 34.3329 8.59828 30.6134 6.68015 28.5322C5.18109 26.9051 2.7423 26.5687 1.06774 26.554C0.481476 26.5489 0.0027895 27.0188 0.000258446 27.6051C-0.00796795 29.4619 0.272928 32.3008 1.85812 34.0215Z" fill="white"/>
</svg>
