<svg width="39" height="36" viewBox="0 0 39 36" fill="none" xmlns="http://www.w3.org/2000/svg">
<path fill-rule="evenodd" clip-rule="evenodd" d="M29.8481 0.109936C31.2731 0.160021 32.3809 1.38564 32.3225 2.84744C32.264 4.30925 31.0614 5.45365 29.6364 5.40339C28.2114 5.35331 27.1036 4.12769 27.1621 2.66589C27.2206 1.20417 28.4231 0.0597653 29.8481 0.109936ZM14.9282 16.718L8.47197 26.5699C8.45737 26.5921 8.45487 26.6179 8.46489 26.6425C8.47491 26.6672 8.49468 26.6839 8.52077 26.6899L11.875 27.4585C11.9036 27.4651 11.9315 27.4565 11.9514 27.4351L19.0907 19.7399C19.1104 19.7186 19.1168 19.6906 19.1081 19.663C19.0995 19.6353 19.0782 19.6158 19.0498 19.6094C17.7499 19.3149 16.5703 18.7273 15.6828 17.7148C15.4237 17.4192 15.2179 17.0864 15.0683 16.7307C15.0566 16.703 15.0322 16.6851 15.002 16.6825C14.9719 16.6797 14.9447 16.6929 14.9282 16.718ZM27.2243 10.38L29.2686 11.4218C30.4151 12.0061 31.6512 11.8789 32.6932 11.1212L35.9259 8.77073C36.5627 8.30762 36.8198 7.44606 36.6105 6.70054C36.0527 4.71396 34.5445 5.58169 34.1267 6.7718L33.948 7.28089C33.9475 7.28217 33.9471 7.28337 33.9468 7.28474C33.936 7.32128 33.9145 7.35515 33.8828 7.38131L31.703 9.17596C31.6343 9.23247 31.5333 9.23753 31.4584 9.18239L29.0446 7.39726C29.0209 7.37977 28.9917 7.37651 28.9648 7.38843C28.9378 7.40035 28.9206 7.42393 28.9178 7.45309C28.838 8.27975 28.4667 9.02073 27.8494 9.62372L27.2048 10.2536C27.1859 10.2719 27.1779 10.2959 27.1819 10.3218C27.1859 10.3475 27.2008 10.368 27.2243 10.38ZM27.0679 8.83488C28.3638 7.5687 27.7827 5.86076 26.8205 4.65993C26.3071 4.01929 24.4652 2.40474 22.7696 1.24911C21.6318 0.473736 20.5789 -0.0903172 20.094 0.0119963L13.1961 1.4678C12.3448 1.64738 11.8976 2.83784 12.2391 3.67033C12.3317 3.89596 12.6288 4.05162 13.0142 4.11568C13.4315 4.18507 13.9397 4.14227 14.4147 3.96406C15.06 3.72204 15.6086 2.92077 15.933 2.87712L19.2749 2.42755C19.2757 2.42747 19.2763 2.42738 19.2771 2.42721C19.3404 2.41692 19.4077 2.43733 19.4546 2.4875L22.4238 5.66042C22.4887 5.7298 22.4956 5.83769 22.4354 5.91513L16.46 13.5824C15.6854 14.5764 15.69 16.0377 16.5234 16.9883C16.875 17.3894 17.2942 17.718 17.7776 17.9776C18.2554 18.2342 18.7963 18.4247 19.3969 18.5523C19.4047 18.554 19.4117 18.5544 19.4197 18.5538L25.1263 18.108C25.1268 18.108 25.1273 18.1079 25.1278 18.1078C25.2349 18.0975 25.3314 18.1738 25.3446 18.2805L26.0214 23.6441C26.0248 23.6707 26.0397 23.692 26.0636 23.7044L28.7882 25.111C28.8141 25.1244 28.8431 25.1231 28.8678 25.1075C28.8924 25.0919 28.9058 25.0664 28.9045 25.0374L28.4697 15.3774C28.4492 14.9217 26.9619 14.7323 26.6793 14.702L22.0352 14.204C21.8698 14.1862 21.7973 13.9844 21.917 13.8675L27.0679 8.83488ZM23.1604 29.2622L17.662 35.857C17.5403 36.0029 17.3351 36.0397 17.1724 35.9556L0.352951 27.272C-0.110951 27.0324 -0.121402 26.3682 0.3444 26.1182C0.480263 26.0453 0.642036 26.0202 0.803206 26.0571L15.7604 29.4844C15.7904 29.4912 15.8199 29.4814 15.8396 29.4578L21.338 22.8632C21.4597 22.7172 21.6649 22.6804 21.8276 22.7645L38.647 31.4481C39.1109 31.6876 39.1215 32.3518 38.6556 32.6017C38.5196 32.6747 38.3578 32.6997 38.1968 32.6629L23.2396 29.2357C23.2096 29.2287 23.1801 29.2387 23.1604 29.2622Z" fill="white"/>
</svg>
