<svg width="29" height="29" viewBox="0 0 29 29" fill="none" xmlns="http://www.w3.org/2000/svg">
<path d="M14.3713 0.911602C13.9793 0.391378 13.3203 0.141954 12.6768 0.270227C12.0333 0.3985 11.5256 0.880484 11.3578 1.51229L9.37343 9.10451L2.08168 11.7112C1.47263 11.9305 1.03706 12.4743 0.963411 13.1145C0.889765 13.7548 1.17916 14.3879 1.71774 14.7429L8.24446 19.0502L8.4769 26.9295C8.49741 27.5782 8.88623 28.1643 9.47822 28.4325C10.0702 28.7007 10.765 28.6112 11.2705 28.2003L17.2686 23.2786L24.6953 25.5243C25.3198 25.7099 25.9968 25.5315 26.4397 25.0515C26.8825 24.5716 27.0179 23.8864 26.7881 23.2794L23.9764 15.9143L28.3528 9.43368C28.714 8.89929 28.7438 8.20253 28.425 7.6405C28.1063 7.07847 27.5008 6.74225 26.8542 6.77322L19.115 7.16269L14.3713 0.911602Z" fill="white" fill-opacity="0.29"/>
</svg>
