<svg width="158" height="158" viewBox="0 0 158 158" fill="none" xmlns="http://www.w3.org/2000/svg">
<circle cx="79" cy="79" r="79" fill="url(#paint0_radial_814_1813)"/>
<path d="M57.9026 99.9059H40.3904C39.8318 99.9059 39.3799 100.358 39.3799 100.916C39.3799 101.474 39.8318 101.927 40.3904 101.927H57.9026C58.4612 101.927 58.9131 101.474 58.9131 100.916C58.9131 100.358 58.4612 99.9059 57.9026 99.9059Z" fill="#7A35FF"/>
<path d="M54.8984 108.664H43.3962C42.8377 108.664 42.3857 109.116 42.3857 109.674C42.3857 110.232 42.8377 110.685 43.3962 110.685H54.8982C55.4568 110.685 55.9087 110.232 55.9087 109.674C55.9087 109.116 55.457 108.664 54.8984 108.664Z" fill="#7A35FF"/>
<path d="M117.969 82.9514C117.969 82.8402 117.969 34.7677 117.969 34.7677C117.948 34.2219 117.463 33.7876 116.958 33.7876H46.9158C46.6733 33.7876 46.4408 33.8684 46.2591 34.02L30.2717 47.6018C30.0595 47.7837 29.918 48.1374 29.918 48.3699V118.432C29.918 118.988 30.3627 119.443 30.9284 119.443H98.5655C102.204 122.424 106.852 124.213 111.905 124.213C123.536 124.213 132.995 114.754 132.995 103.122C132.996 93.6129 126.649 85.5585 117.969 82.9514ZM87.3385 35.8085H114.209L100.597 47.3592H74.6962L87.3385 35.8085ZM115.947 36.9807V82.446C114.644 82.1934 113.29 82.0519 111.905 82.0519C108.318 82.0519 104.942 82.9512 101.981 84.5377V48.8447C106.853 44.7015 113.128 39.3758 115.947 36.9807ZM47.2898 35.8085H67.4709L54.8388 47.3592H33.6773L47.2898 35.8085ZM31.9391 117.422V49.3804H54.222V68.1061C54.222 68.4598 54.404 68.7832 54.6971 68.9651C55.0003 69.1572 55.3639 69.1673 55.6873 69.0157L63.6709 65.0239L71.6444 69.0157C71.9678 69.1774 72.3418 69.1471 72.6245 68.9651C72.9278 68.7832 73.1097 68.4598 73.1097 68.1061V49.3804H99.9605V85.7809C94.4529 89.5907 90.8249 95.937 90.8249 103.122C90.8249 108.64 92.9775 113.662 96.4538 117.422H31.9391ZM111.905 122.192C101.395 122.192 92.8461 113.642 92.8461 103.122C92.8461 92.6224 101.395 84.073 111.905 84.073C122.415 84.073 130.975 92.6224 130.975 103.122C130.975 113.642 122.415 122.192 111.905 122.192Z" fill="#7A35FF"/>
<path d="M122.698 101.253L112.502 111.449C110.733 113.228 107.843 113.238 106.065 111.449L101.123 106.508C99.3444 104.729 99.3444 101.839 101.123 100.07C102.902 98.2816 105.782 98.2917 107.56 100.07L109.288 101.788L116.261 94.8154C118.04 93.0267 120.92 93.0368 122.698 94.8154C124.487 96.594 124.487 99.474 122.698 101.253Z" fill="#7A35FF"/>
<defs>
<radialGradient id="paint0_radial_814_1813" cx="0" cy="0" r="1" gradientUnits="userSpaceOnUse" gradientTransform="translate(79 90.8767) rotate(-90) scale(99.0169 110.6)">
<stop offset="0.394231" stop-color="#75AEFF" stop-opacity="0"/>
<stop offset="1" stop-color="#75AEFF" stop-opacity="0.3"/>
</radialGradient>
</defs>
</svg>
