<svg width="56" height="56" viewBox="0 0 56 56" fill="none" xmlns="http://www.w3.org/2000/svg">
<path d="M36.624 29.1199H7.6776C7.0616 29.1199 6.5576 28.6159 6.5576 27.9999C6.5576 27.3839 7.0616 26.8799 7.6776 26.8799H36.624C37.24 26.8799 37.744 27.3839 37.744 27.9999C37.744 28.6159 37.24 29.1199 36.624 29.1199Z" fill="#302742"/>
<path d="M46.788 29.1199C47.4066 29.1199 47.908 28.6184 47.908 27.9999C47.908 27.3813 47.4066 26.8799 46.788 26.8799C46.1694 26.8799 45.668 27.3813 45.668 27.9999C45.668 28.6184 46.1694 29.1199 46.788 29.1199Z" fill="#302742"/>
<path d="M41.7032 29.1199C42.3218 29.1199 42.8232 28.6184 42.8232 27.9999C42.8232 27.3813 42.3218 26.8799 41.7032 26.8799C41.0846 26.8799 40.5832 27.3813 40.5832 27.9999C40.5832 28.6184 41.0846 29.1199 41.7032 29.1199Z" fill="#302742"/>
<path d="M15.1144 37.8671C14.7952 37.8671 14.4816 37.7327 14.2632 37.4751L6.8264 28.7279C6.4736 28.3079 6.4736 27.6975 6.8264 27.2775L14.2632 18.5303C14.6608 18.0599 15.372 18.0039 15.8424 18.4015C16.3128 18.8047 16.3688 19.5103 15.9712 19.9807L9.1504 27.9999L15.9712 36.0247C16.3744 36.4951 16.3128 37.2007 15.8424 37.6039C15.6296 37.7831 15.372 37.8671 15.1144 37.8671Z" fill="#302742"/>
</svg>
