<svg width="56" height="56" viewBox="0 0 56 56" fill="none" xmlns="http://www.w3.org/2000/svg">
<path d="M19.376 29.1199H48.3224C48.9384 29.1199 49.4424 28.6159 49.4424 27.9999C49.4424 27.3839 48.9384 26.8799 48.3224 26.8799H19.376C18.76 26.8799 18.256 27.3839 18.256 27.9999C18.256 28.6159 18.76 29.1199 19.376 29.1199Z" fill="#302742"/>
<path d="M9.21203 29.1199C8.59347 29.1199 8.09203 28.6184 8.09203 27.9999C8.09203 27.3813 8.59347 26.8799 9.21203 26.8799C9.83059 26.8799 10.332 27.3813 10.332 27.9999C10.332 28.6184 9.83059 29.1199 9.21203 29.1199Z" fill="#302742"/>
<path d="M14.2967 29.1199C13.6782 29.1199 13.1767 28.6184 13.1767 27.9999C13.1767 27.3813 13.6782 26.8799 14.2967 26.8799C14.9153 26.8799 15.4167 27.3813 15.4167 27.9999C15.4167 28.6184 14.9153 29.1199 14.2967 29.1199Z" fill="#302742"/>
<path d="M40.8856 37.8671C41.2048 37.8671 41.5184 37.7327 41.7368 37.4751L49.1736 28.7279C49.5264 28.3079 49.5264 27.6975 49.1736 27.2775L41.7368 18.5303C41.3392 18.0599 40.628 18.0039 40.1576 18.4015C39.6872 18.8047 39.6312 19.5103 40.0288 19.9807L46.8496 27.9999L40.0288 36.0247C39.6256 36.4951 39.6872 37.2007 40.1576 37.6039C40.3704 37.7831 40.628 37.8671 40.8856 37.8671Z" fill="#302742"/>
</svg>
