<svg width="141" height="21" viewBox="0 0 141 21" fill="none" xmlns="http://www.w3.org/2000/svg">
<path d="M18.5279 4.78008C18.5218 4.31678 18.1619 3.93426 17.6964 3.89191C13.8275 3.53252 10.6701 1.48503 9.62925 0.735636C9.4116 0.578356 9.11709 0.578356 8.89944 0.735636C7.86038 1.48503 4.70334 3.53359 0.83407 3.89191C0.368595 3.93426 0.0105082 4.31678 0.00260657 4.78008C-0.0440847 7.80363 0.445797 18.067 9.03195 20.3522C9.1846 20.3924 9.34515 20.3924 9.49744 20.3522C18.0832 18.0702 18.5735 7.80185 18.5268 4.78008" fill="url(#paint0_linear_703_1870)"/>
<path d="M13.8379 7.96632L13.0481 7.16494C12.9399 7.05512 12.8083 7 12.6532 7C12.4982 7 12.3666 7.05512 12.2583 7.16494L8.44906 11.0362L6.74209 9.29814C6.63386 9.18832 6.50223 9.1332 6.3472 9.1332C6.19217 9.1332 6.06054 9.18832 5.95231 9.29814L5.16254 10.0995C5.05431 10.2093 5 10.3429 5 10.5002C5 10.6571 5.05431 10.7911 5.16254 10.9009L7.26442 13.0337L8.05417 13.8351C8.1624 13.9449 8.29403 14 8.44906 14C8.60367 14 8.7353 13.9449 8.84395 13.8351L9.63372 13.0337L13.8375 8.76813C13.9457 8.65831 14 8.52475 14 8.36744C14 8.21055 13.9457 8.07699 13.8375 7.96674" fill="white" fill-opacity="0.851"/>
<mask id="mask0_703_1870" style="mask-type:luminance" maskUnits="userSpaceOnUse" x="25" y="0" width="34" height="21">
<path d="M58.7794 0H25.5294V21H58.7794V0Z" fill="white"/>
</mask>
<g mask="url(#mask0_703_1870)">
<path opacity="0.07" d="M56.1544 0H28.1544C26.6669 0 25.5294 1.1375 25.5294 2.625V18.375C25.5294 19.8625 26.7544 21 28.1544 21H56.1544C57.6419 21 58.7794 19.8625 58.7794 18.375V2.625C58.7794 1.1375 57.5544 0 56.1544 0Z" fill="black"/>
<path d="M56.1544 0.875C57.1169 0.875 57.9044 1.6625 57.9044 2.625V18.375C57.9044 19.3375 57.1169 20.125 56.1544 20.125H28.1544C27.1919 20.125 26.4044 19.3375 26.4044 18.375V2.625C26.4044 1.6625 27.1919 0.875 28.1544 0.875H56.1544Z" fill="white"/>
<path d="M50.2919 8.8375H50.0294C49.6794 9.7125 49.4169 10.15 49.1544 11.4625H50.8169C50.5544 10.15 50.5544 9.5375 50.2919 8.8375ZM52.8294 14H51.3419C51.2544 14 51.2544 14 51.1669 13.9125L50.9919 13.125L50.9044 12.95H48.8044C48.7169 12.95 48.6294 12.95 48.6294 13.125L48.3669 13.9125C48.3669 14 48.2794 14 48.2794 14H46.4419L46.6169 13.5625L49.1544 7.6125C49.1544 7.175 49.4169 7 49.8544 7H51.1669C51.2544 7 51.3419 7 51.3419 7.175L52.5669 12.8625C52.6544 13.2125 52.7419 13.475 52.7419 13.825C52.8294 13.9125 52.8294 13.9125 52.8294 14ZM41.1044 13.7375L41.4544 12.1625C41.5419 12.1625 41.6294 12.25 41.6294 12.25C42.2419 12.5125 42.8544 12.6875 43.4669 12.6C43.6419 12.6 43.9044 12.5125 44.0794 12.425C44.5169 12.25 44.5169 11.8125 44.1669 11.4625C43.9919 11.2875 43.7294 11.2 43.4669 11.025C43.1169 10.85 42.7669 10.675 42.5044 10.4125C41.4544 9.5375 41.8044 8.3125 42.4169 7.7C42.9419 7.35 43.2044 7 43.9044 7C44.9544 7 46.0919 7 46.6169 7.175H46.7044C46.6169 7.7 46.5294 8.1375 46.3544 8.6625C45.9169 8.4875 45.4794 8.3125 45.0419 8.3125C44.7794 8.3125 44.5169 8.3125 44.2544 8.4C44.0794 8.4 43.9919 8.4875 43.9044 8.575C43.7294 8.75 43.7294 9.0125 43.9044 9.1875L44.3419 9.5375C44.6919 9.7125 45.0419 9.8875 45.3044 10.0625C45.7419 10.325 46.1794 10.7625 46.2669 11.2875C46.4419 12.075 46.1794 12.775 45.4794 13.3C45.0419 13.65 44.8669 13.825 44.2544 13.825C43.0294 13.825 42.0669 13.9125 41.2794 13.65C41.1919 13.825 41.1919 13.825 41.1044 13.7375ZM38.0419 14C38.1294 13.3875 38.1294 13.3875 38.2169 13.125C38.6544 11.2 39.0919 9.1875 39.4419 7.2625C39.5294 7.0875 39.5294 7 39.7044 7H41.2794C41.1044 8.05 40.9294 8.8375 40.6669 9.8C40.4044 11.1125 40.1419 12.425 39.7919 13.7375C39.7919 13.9125 39.7044 13.9125 39.5294 13.9125M29.9044 7.175C29.9044 7.0875 30.0794 7 30.1669 7H33.1419C33.5794 7 33.9294 7.2625 34.0169 7.7L34.8044 11.55C34.8044 11.6375 34.8044 11.6375 34.8919 11.725C34.8919 11.6375 34.9794 11.6375 34.9794 11.6375L36.8169 7.175C36.7294 7.0875 36.8169 7 36.9044 7H38.7419C38.7419 7.0875 38.7419 7.0875 38.6544 7.175L35.9419 13.5625C35.8544 13.7375 35.8544 13.825 35.7669 13.9125C35.6794 14 35.5044 13.9125 35.3294 13.9125H34.0169C33.9294 13.9125 33.8419 13.9125 33.8419 13.7375L32.4419 8.3125C32.2669 8.1375 32.0044 7.875 31.6544 7.7875C31.1294 7.525 30.1669 7.35 29.9919 7.35L29.9044 7.175Z" fill="#142688"/>
</g>
<mask id="mask1_703_1870" style="mask-type:luminance" maskUnits="userSpaceOnUse" x="65" y="0" width="35" height="21">
<path d="M99.0294 0H65.7794V21H99.0294V0Z" fill="white"/>
</mask>
<g mask="url(#mask1_703_1870)">
<path opacity="0.07" d="M96.4044 0H68.4044C66.9169 0 65.7794 1.1375 65.7794 2.625V18.375C65.7794 19.8625 67.0044 21 68.4044 21H96.4044C97.8919 21 99.0294 19.8625 99.0294 18.375V2.625C99.0294 1.1375 97.8044 0 96.4044 0Z" fill="black"/>
<path d="M96.4044 0.875C97.3669 0.875 98.1544 1.6625 98.1544 2.625V18.375C98.1544 19.3375 97.3669 20.125 96.4044 20.125H68.4044C67.4419 20.125 66.6544 19.3375 66.6544 18.375V2.625C66.6544 1.6625 67.4419 0.875 68.4044 0.875H96.4044Z" fill="white"/>
<path d="M78.9044 16.625C82.2872 16.625 85.0294 13.8827 85.0294 10.5C85.0294 7.11726 82.2872 4.375 78.9044 4.375C75.5217 4.375 72.7794 7.11726 72.7794 10.5C72.7794 13.8827 75.5217 16.625 78.9044 16.625Z" fill="#EB001B"/>
<path d="M85.9044 16.625C89.2872 16.625 92.0294 13.8827 92.0294 10.5C92.0294 7.11726 89.2872 4.375 85.9044 4.375C82.5217 4.375 79.7794 7.11726 79.7794 10.5C79.7794 13.8827 82.5217 16.625 85.9044 16.625Z" fill="#F79E1B"/>
<path d="M85.0294 10.4997C85.0294 8.39971 83.9794 6.56221 82.4044 5.51221C80.8294 6.64971 79.7794 8.48721 79.7794 10.4997C79.7794 12.5122 80.8294 14.4372 82.4044 15.4872C83.9794 14.4372 85.0294 12.5997 85.0294 10.4997Z" fill="#FF5F00"/>
</g>
<mask id="mask2_703_1870" style="mask-type:luminance" maskUnits="userSpaceOnUse" x="106" y="0" width="35" height="21">
<path d="M140.154 0H106.029V21H140.154V0Z" fill="white"/>
</mask>
<g mask="url(#mask2_703_1870)">
<path opacity="0.07" d="M137.46 0H108.724C107.197 0 106.029 1.1375 106.029 2.625V18.375C106.029 19.8625 107.287 21 108.724 21H137.46C138.987 21 140.154 19.8625 140.154 18.375V2.625C140.154 1.1375 138.897 0 137.46 0Z" fill="black"/>
<path d="M137.46 0.875C138.448 0.875 139.257 1.6625 139.257 2.625V18.375C139.257 19.3375 138.448 20.125 137.46 20.125H108.724C107.736 20.125 106.927 19.3375 106.927 18.375V2.625C106.927 1.6625 107.736 0.875 108.724 0.875H137.46Z" fill="white"/>
<path d="M109.235 6.26516H107.826V11.0776H109.235C109.981 11.0776 110.52 10.9026 110.996 10.5264C111.561 10.0714 111.894 9.38887 111.894 8.68016C111.885 7.25391 110.798 6.26516 109.235 6.26516ZM110.367 9.88762C110.061 10.1501 109.676 10.2726 109.046 10.2726H108.787V7.08766H109.046C109.667 7.08766 110.044 7.19266 110.367 7.47266C110.699 7.76141 110.897 8.20766 110.897 8.67141C110.897 9.13512 110.699 9.59887 110.367 9.88762ZM112.334 6.26516H113.295V11.0776H112.334V6.26516ZM115.647 8.11141C115.073 7.90141 114.902 7.76141 114.902 7.50766C114.902 7.20141 115.207 6.97391 115.62 6.97391C115.907 6.97391 116.151 7.08766 116.393 7.36766L116.895 6.72891C116.482 6.37891 115.989 6.19516 115.441 6.19516C114.569 6.19516 113.897 6.79016 113.897 7.57766C113.897 8.24266 114.211 8.58391 115.108 8.89887C115.486 9.03012 115.675 9.11762 115.773 9.17012C115.962 9.29262 116.06 9.46762 116.06 9.66887C116.06 10.0626 115.746 10.3514 115.315 10.3514C114.857 10.3514 114.489 10.1239 114.264 9.71262L113.645 10.2989C114.085 10.9376 114.624 11.2176 115.351 11.2176C116.347 11.2176 117.057 10.5701 117.057 9.63387C117.075 8.85512 116.743 8.50516 115.647 8.11141ZM117.371 8.68016C117.371 10.0976 118.512 11.1914 119.976 11.1914C120.389 11.1914 120.748 11.1126 121.179 10.9114V9.80887C120.793 10.1851 120.452 10.3339 120.021 10.3339C119.051 10.3339 118.359 9.65137 118.359 8.67141C118.359 7.74391 119.069 7.01766 119.976 7.01766C120.434 7.01766 120.784 7.17516 121.179 7.56016V6.45766C120.757 6.24766 120.407 6.16016 119.994 6.16016C118.548 6.16016 117.371 7.28016 117.371 8.68016ZM128.83 9.50262L127.51 6.26516H126.46L128.552 11.2001H129.073L131.201 6.26516H130.159L128.83 9.50262ZM131.642 11.0776H134.372V10.2639H132.602V8.96887H134.309V8.15516H132.602V7.08766H134.372V6.26516H131.642V11.0776ZM138.187 7.69141C138.187 6.79016 137.55 6.27391 136.437 6.27391H135.009V11.0864H135.969V9.15262H136.095L137.424 11.0864H138.61L137.056 9.05637C137.784 8.90762 138.187 8.42641 138.187 7.69141ZM136.248 8.48766H135.969V7.02641H136.266C136.868 7.02641 137.191 7.27141 137.191 7.74391C137.191 8.22516 136.868 8.48766 136.248 8.48766Z" fill="#231F20"/>
<path d="M124.134 11.2527C124.831 11.2527 125.501 10.9825 125.995 10.5016C126.489 10.0207 126.766 9.36834 126.766 8.68816C126.766 8.00798 126.489 7.35566 125.995 6.8747C125.501 6.39374 124.831 6.12354 124.134 6.12354C123.436 6.12354 122.766 6.39374 122.272 6.8747C121.779 7.35566 121.501 8.00798 121.501 8.68816C121.501 9.36834 121.779 10.0207 122.272 10.5016C122.766 10.9825 123.436 11.2527 124.134 11.2527Z" fill="url(#paint1_linear_703_1870)"/>
<path opacity="0.65" d="M124.134 11.2527C124.831 11.2527 125.501 10.9825 125.995 10.5016C126.489 10.0207 126.766 9.36834 126.766 8.68816C126.766 8.00798 126.489 7.35566 125.995 6.8747C125.501 6.39374 124.831 6.12354 124.134 6.12354C123.436 6.12354 122.766 6.39374 122.272 6.8747C121.779 7.35566 121.501 8.00798 121.501 8.68816C121.501 9.36834 121.779 10.0207 122.272 10.5016C122.766 10.9825 123.436 11.2527 124.134 11.2527Z" fill="url(#paint2_linear_703_1870)"/>
<path d="M138.87 6.56777C138.87 6.48027 138.808 6.43652 138.709 6.43652H138.565V6.85652H138.673V6.69027L138.798 6.85652H138.924L138.781 6.68152C138.834 6.67277 138.87 6.62902 138.87 6.56777ZM138.691 6.62902H138.673V6.51527H138.691C138.745 6.51527 138.771 6.53277 138.771 6.56777C138.771 6.61152 138.745 6.62902 138.691 6.62902Z" fill="#231F20"/>
<path d="M138.726 6.27881C138.52 6.27881 138.349 6.44506 138.349 6.64631C138.349 6.84756 138.52 7.01381 138.726 7.01381C138.933 7.01381 139.103 6.84756 139.103 6.64631C139.103 6.44506 138.933 6.27881 138.726 6.27881ZM138.726 6.95256C138.564 6.95256 138.421 6.82131 138.421 6.64631C138.421 6.48006 138.556 6.34006 138.726 6.34006C138.888 6.34006 139.023 6.48006 139.023 6.64631C139.023 6.81256 138.888 6.95256 138.726 6.95256Z" fill="#231F20"/>
<path d="M139.257 11.3608C139.257 11.3608 130.357 17.3887 114.09 20.1248H137.459C137.934 20.1248 138.388 19.9424 138.725 19.6173C139.061 19.292 139.251 18.8505 139.256 18.3888L139.277 15.7463L139.257 11.3608Z" fill="#F48120"/>
</g>
<defs>
<linearGradient id="paint0_linear_703_1870" x1="-264.967" y1="20.686" x2="-264.967" y2="0.759121" gradientUnits="userSpaceOnUse">
<stop stop-color="#2FAE61"/>
<stop offset="1" stop-color="#4BDF88"/>
</linearGradient>
<linearGradient id="paint1_linear_703_1870" x1="125.478" y1="10.7409" x2="123.725" y2="7.92499" gradientUnits="userSpaceOnUse">
<stop stop-color="#F89F20"/>
<stop offset="0.25" stop-color="#F79A20"/>
<stop offset="0.533" stop-color="#F68D20"/>
<stop offset="0.62" stop-color="#F58720"/>
<stop offset="0.723" stop-color="#F48120"/>
<stop offset="1" stop-color="#F37521"/>
</linearGradient>
<linearGradient id="paint2_linear_703_1870" x1="125.192" y1="10.7032" x2="122.641" y2="5.5868" gradientUnits="userSpaceOnUse">
<stop stop-color="#F58720"/>
<stop offset="0.359" stop-color="#E16F27"/>
<stop offset="0.703" stop-color="#D4602C"/>
<stop offset="0.982" stop-color="#D05B2E"/>
</linearGradient>
</defs>
</svg>
