<svg width="36" height="36" viewBox="0 0 36 36" fill="none" xmlns="http://www.w3.org/2000/svg">
<path d="M35.907 20.6318L34.0848 17.8437C33.2801 16.6117 31.913 15.876 30.4269 15.876H25.7142V13.164C25.7142 11.5082 24.3677 10.1618 22.7119 10.1618H13.8899C13.3948 7.57639 11.1191 5.61487 8.39146 5.61487C5.30287 5.61487 2.7904 8.12766 2.7904 11.2159C2.7904 13.1578 3.78472 14.8708 5.29011 15.876H0.571551C0.255694 15.876 0 16.1317 0 16.4475C0 16.7634 0.255694 17.0191 0.571551 17.0191H6.28575V18.1618H3.99987C3.68434 18.1618 3.42865 18.4175 3.42865 18.7334C3.42865 19.0493 3.68434 19.3046 3.99987 19.3046H6.28575V20.4474H0.571551C0.255694 20.4474 0 20.7031 0 21.0189C0 21.3348 0.255694 21.5905 0.571551 21.5905H6.28575V24.1213C5.27834 24.5656 4.57142 25.5707 4.57142 26.7407V27.3047C4.57142 27.6205 4.82745 27.8762 5.14297 27.8762H10.2111C10.5361 29.2744 11.7897 30.3207 13.2856 30.3207C14.7818 30.3207 16.0351 29.2744 16.3601 27.8762H27.354C27.6793 29.2744 28.933 30.3207 30.4285 30.3207C31.9241 30.3207 33.1781 29.2744 33.5031 27.8762H35.4286C35.7445 27.8762 35.9998 27.6205 35.9998 27.3047V20.9444C35.9998 20.8332 35.9675 20.7243 35.907 20.6318ZM3.93317 11.2159C3.93317 8.75774 5.93327 6.75764 8.39146 6.75764C10.85 6.75764 12.8498 8.75774 12.8498 11.2159C12.8498 13.6741 10.85 15.6742 8.39146 15.6742C5.93327 15.6742 3.93317 13.6741 3.93317 11.2159ZM7.42852 21.5905H8.5713C8.88715 21.5905 9.14285 21.3348 9.14285 21.0189C9.14285 20.7031 8.88715 20.4474 8.5713 20.4474H7.42852V19.3046H11.4287C11.7443 19.3046 11.9999 19.0493 11.9999 18.7334C11.9999 18.4175 11.7443 18.1618 11.4287 18.1618H7.42852V17.0191H14.857C15.1726 17.0191 15.4286 16.7634 15.4286 16.4475C15.4286 16.1317 15.1726 15.876 14.857 15.876H11.4928C12.975 14.8862 13.9582 13.2095 13.9883 11.3045H22.7123C23.7373 11.3045 24.5714 12.139 24.5714 13.164V23.876H7.43572C7.43343 23.876 7.43114 23.8767 7.42852 23.8767V21.5905ZM24.5714 26.7331H16.4121C16.3222 26.0759 16.0306 25.4834 15.5999 25.0188H24.5714V26.7331ZM7.43572 25.0188H10.9713C10.541 25.4834 10.249 26.0759 10.1594 26.7331H5.7142C5.71812 25.7875 6.48913 25.0188 7.43572 25.0188ZM13.2856 29.1779C12.1742 29.1779 11.2695 28.2735 11.2695 27.1618C11.2695 26.0504 12.1742 25.1457 13.2856 25.1457C14.3973 25.1457 15.3017 26.0504 15.3017 27.1618C15.3017 28.2735 14.3973 29.1779 13.2856 29.1779ZM30.4285 29.1779C29.3171 29.1779 28.4124 28.2735 28.4124 27.1618C28.4124 26.0504 29.3171 25.1457 30.4285 25.1457C31.5402 25.1457 32.4447 26.0504 32.4447 27.1618C32.4447 28.2735 31.5402 29.1779 30.4285 29.1779ZM34.8571 26.7331H33.5551C33.3448 25.1941 32.0245 24.0029 30.4285 24.0029C28.8326 24.0029 27.5126 25.1941 27.302 26.7331H25.7142V17.0191H30.4269C31.5252 17.0191 32.5352 17.5609 33.1284 18.4685L34.8571 21.1144V26.7331Z" fill="#302742"/>
<path d="M31.3633 27.1618C31.3633 27.6781 30.9448 28.0966 30.4285 28.0966C29.9122 28.0966 29.4937 27.6781 29.4937 27.1618C29.4937 26.6455 29.9122 26.227 30.4285 26.227C30.9448 26.227 31.3633 26.6455 31.3633 27.1618Z" fill="#302742"/>
<path d="M14.2204 27.1618C14.2204 27.6781 13.8019 28.0966 13.2856 28.0966C12.7696 28.0966 12.3511 27.6781 12.3511 27.1618C12.3511 26.6455 12.7696 26.227 13.2856 26.227C13.8019 26.227 14.2204 26.6455 14.2204 27.1618Z" fill="#302742"/>
<path d="M9.14307 11.2159V8.71588C9.14307 8.40002 8.88738 8.14465 8.57152 8.14465C8.25599 8.14465 8.0003 8.40002 8.0003 8.71588V11.0295L6.83398 12.6294C6.64793 12.8845 6.70385 13.2415 6.95888 13.4272C7.0609 13.5018 7.17861 13.5374 7.29534 13.5374C7.47158 13.5374 7.64553 13.456 7.75736 13.3023L9.03353 11.5524C9.10449 11.4549 9.14307 11.3372 9.14307 11.2159Z" fill="#302742"/>
<path d="M30.2359 17.5903H29.1428C28.827 17.5903 28.5713 17.846 28.5713 18.1619V22.1618C28.5713 22.4776 28.827 22.7333 29.1428 22.7333H32.9887C33.3471 22.7333 33.6678 22.5479 33.8477 22.2383C34.0275 21.9286 34.0278 21.5578 33.8506 21.2488L32.5162 18.9133C32.0503 18.0978 31.1763 17.5903 30.2359 17.5903ZM29.7144 21.5905V18.7334H30.2359C30.7672 18.7334 31.2607 19.0195 31.5239 19.4806L32.7294 21.5905H29.7144Z" fill="#302742"/>
</svg>
