<svg width="87" height="15" viewBox="0 0 87 15" fill="none" xmlns="http://www.w3.org/2000/svg">
<path d="M7.59527 0L9.82744 4.46619L14.8188 5.18237L11.207 8.65882L12.0596 13.5676L7.59527 11.25L3.13089 13.5676L3.98352 8.65882L0.371765 5.18237L5.36308 4.46619L7.59527 0Z" fill="#FFAD16"/>
<path d="M25.5476 0L27.7798 4.46619L32.7711 5.18237L29.1594 8.65882L30.012 13.5676L25.5476 11.25L21.0833 13.5676L21.9359 8.65882L18.3242 5.18237L23.3155 4.46619L25.5476 0Z" fill="#FFAD16"/>
<path d="M43.5 0L45.7321 4.46619L50.7235 5.18237L47.1117 8.65882L47.9643 13.5676L43.5 11.25L39.0356 13.5676L39.8882 8.65882L36.2765 5.18237L41.2678 4.46619L43.5 0Z" fill="#FFAD16"/>
<path d="M61.4524 0L63.6845 4.46619L68.6759 5.18237L65.0641 8.65882L65.9167 13.5676L61.4524 11.25L56.988 13.5676L57.8406 8.65882L54.2289 5.18237L59.2202 4.46619L61.4524 0Z" fill="#FFAD16"/>
<path d="M79.4048 0L81.6371 4.46619L86.6286 5.18237L83.0167 8.65882L83.8694 13.5676L79.4048 11.25L74.9402 13.5676L75.7929 8.65882L72.181 5.18237L77.1725 4.46619L79.4048 0Z" fill="#D9D9D9"/>
</svg>
